<svg xmlns="http://www.w3.org/2000/svg" viewBox="0 0 57 57" enable-background="new 0 0 57 57"><path fill="#E7ECED" d="M.5 18h56v39h-56z"/><path fill="#23A24D" d="M41.5 5h-41v13h56v-13z"/><circle cx="19.5" cy="9" r="2" fill="#38454F"/><circle cx="25.5" cy="9" r="2" fill="#38454F"/><circle cx="31.5" cy="9" r="2" fill="#38454F"/><circle cx="37.5" cy="9" r="2" fill="#38454F"/><path d="M37.5 0c-1.13 0-2.162.391-3 1.025.534.405.979.912 1.315 1.495.481-.328 1.061-.52 1.685-.52 1.654 0 3 1.346 3 3s-1.346 3-3 3c-.553 0-1 .447-1 1s.447 1 1 1c2.757 0 5-2.243 5-5s-2.243-5-5-5z" fill="#AFB6BB"/><path d="M33.185 2.52c-.424.734-.685 1.573-.685 2.48h2c0-1.03-.522-1.939-1.315-2.48zM27.185 2.52c-.424.734-.685 1.573-.685 2.48h2c0-1.03-.522-1.939-1.315-2.48z" fill="#839594"/><path d="M35.815 2.52c-.337-.583-.781-1.09-1.315-1.495-.838-.634-1.87-1.025-3-1.025s-2.162.391-3 1.025c.534.405.979.912 1.315 1.495.481-.328 1.061-.52 1.685-.52s1.204.192 1.685.52c.793.541 1.315 1.45 1.315 2.48 0 1.654-1.346 3-3 3-.553 0-1 .447-1 1s.447 1 1 1c2.757 0 5-2.243 5-5 0-.907-.261-1.746-.685-2.48z" fill="#AFB6BB"/><path d="M21.185 2.52c-.424.734-.685 1.573-.685 2.48h2c0-1.03-.522-1.939-1.315-2.48z" fill="#839594"/><path d="M29.815 2.52c-.337-.583-.781-1.09-1.315-1.495-.838-.634-1.87-1.025-3-1.025s-2.162.391-3 1.025c.534.405.979.912 1.315 1.495.481-.328 1.061-.52 1.685-.52s1.204.192 1.685.52c.793.541 1.315 1.45 1.315 2.48 0 1.654-1.346 3-3 3-.553 0-1 .447-1 1s.447 1 1 1c2.757 0 5-2.243 5-5 0-.907-.261-1.746-.685-2.48zM23.815 2.52c-.337-.583-.781-1.09-1.315-1.495-.838-.634-1.87-1.025-3-1.025-2.757 0-5 2.243-5 5h2c0-1.654 1.346-3 3-3 .624 0 1.204.192 1.685.52.793.541 1.315 1.45 1.315 2.48 0 1.654-1.346 3-3 3-.553 0-1 .447-1 1s.447 1 1 1c2.757 0 5-2.243 5-5 0-.907-.261-1.746-.685-2.48z" fill="#AFB6BB"/><path d="M18.5 51c-.552 0-1-.447-1-1v-26c0-.553.448-1 1-1s1 .447 1 1v26c0 .553-.448 1-1 1zM22.5 51h-8c-.552 0-1-.447-1-1s.448-1 1-1h8c.552 0 1 .447 1 1s-.448 1-1 1zM12.5 31c-.256 0-.512-.098-.707-.293-.391-.391-.391-1.023 0-1.414l6-6c.391-.391 1.023-.391 1.414 0s.391 1.023 0 1.414l-6 6c-.195.195-.451.293-.707.293zM37.5 37c-3.86 0-7-3.141-7-7s3.14-7 7-7 7 3.141 7 7-3.14 7-7 7zm0-12c-2.757 0-5 2.243-5 5s2.243 5 5 5 5-2.243 5-5-2.243-5-5-5zM37.5 51c-3.86 0-7-3.141-7-7 0-.553.448-1 1-1s1 .447 1 1c0 2.757 2.243 5 5 5s5-2.243 5-5v-14c0-.553.448-1 1-1s1 .447 1 1v14c0 3.859-3.14 7-7 7z" fill="#556080"/></svg>